<svg xmlns="http://www.w3.org/2000/svg" width="1920" height="1080"><path d="M730,-257L955,-231L1131,-229Z" fill="#a6bfe0" stroke="#a6bfe0" stroke-width="1.51"/><path d="M730,-257L1131,-229L1530,-244Z" fill="#a1bde0" stroke="#a1bde0" stroke-width="1.51"/><path d="M1181,1318L769,1345L1658,1317Z" fill="#8fadd7" stroke="#8fadd7" stroke-width="1.51"/><path d="M1409,1288L1181,1318L1658,1317Z" fill="#8babd8" stroke="#8babd8" stroke-width="1.51"/><path d="M1658,1317L769,1345L1973,1325Z" fill="#88aad8" stroke="#88aad8" stroke-width="1.51"/><path d="M1787,1306L1658,1317L1973,1325Z" fill="#7fa6da" stroke="#7fa6da" stroke-width="1.51"/><path d="M2113,72L2092,240L2141,564Z" fill="#91b1db" stroke="#91b1db" stroke-width="1.51"/><path d="M2092,240L2088,403L2141,564Z" fill="#94b1d8" stroke="#94b1d8" stroke-width="1.51"/><path d="M730,-257L1530,-244L2171,-274Z" fill="#98b9e2" stroke="#98b9e2" stroke-width="1.51"/><path d="M1530,-244L1812,-215L2171,-274Z" fill="#8fb4e3" stroke="#8fb4e3" stroke-width="1.51"/><path d="M1812,-215L1951,-164L2171,-274Z" fill="#8cb3e4" stroke="#8cb3e4" stroke-width="1.51"/><path d="M1951,-164L2106,-25L2171,-274Z" fill="#8ab2e3" stroke="#8ab2e3" stroke-width="1.51"/><path d="M2106,-25L2113,72L2171,-274Z" fill="#8ab1e2" stroke="#8ab1e2" stroke-width="1.51"/><path d="M1959,846L2102,952L2192,744Z" fill="#8bacd8" stroke="#8bacd8" stroke-width="1.51"/><path d="M1989,631L1959,846L2192,744Z" fill="#90aed7" stroke="#90aed7" stroke-width="1.51"/><path d="M2141,564L1989,631L2192,744Z" fill="#92afd7" stroke="#92afd7" stroke-width="1.51"/><path d="M2102,952L2146,1144L2192,744Z" fill="#85a9d9" stroke="#85a9d9" stroke-width="1.51"/><path d="M2146,1144L2139,1248L2192,744Z" fill="#81a7d9" stroke="#81a7d9" stroke-width="1.51"/><path d="M2171,-274L2113,72L2192,744Z" fill="#8eb0dd" stroke="#8eb0dd" stroke-width="1.51"/><path d="M2113,72L2141,564L2192,744Z" fill="#94b0d7" stroke="#94b0d7" stroke-width="1.51"/><path d="M2088,403L1993,465L2141,564Z" fill="#96b1d7" stroke="#96b1d7" stroke-width="1.51"/><path d="M2102,952L2005,1168L2146,1144Z" fill="#81a7da" stroke="#81a7da" stroke-width="1.51"/><path d="M1987,957L2005,1168L2102,952Z" fill="#85a9d9" stroke="#85a9d9" stroke-width="1.51"/><path d="M1951,-164L1955,-56L2106,-25Z" fill="#8eb2e2" stroke="#8eb2e2" stroke-width="1.51"/><path d="M1944,152L2092,240L2113,72Z" fill="#91b1dd" stroke="#91b1dd" stroke-width="1.51"/><path d="M2005,1168L2139,1248L2146,1144Z" fill="#7da5da" stroke="#7da5da" stroke-width="1.51"/><path d="M1968,299L2088,403L2092,240Z" fill="#94b1da" stroke="#94b1da" stroke-width="1.51"/><path d="M1993,465L1989,631L2141,564Z" fill="#97b1d5" stroke="#97b1d5" stroke-width="1.51"/><path d="M2005,1168L1973,1325L2139,1248Z" fill="#7ca5da" stroke="#7ca5da" stroke-width="1.51"/><path d="M1959,846L1987,957L2102,952Z" fill="#89abd8" stroke="#89abd8" stroke-width="1.51"/><path d="M2106,-25L1955,-56L2113,72Z" fill="#8db2e0" stroke="#8db2e0" stroke-width="1.51"/><path d="M1955,-56L1944,152L2113,72Z" fill="#90b2df" stroke="#90b2df" stroke-width="1.51"/><path d="M1944,152L1968,299L2092,240Z" fill="#93b2db" stroke="#93b2db" stroke-width="1.51"/><path d="M1968,299L1993,465L2088,403Z" fill="#96b2d8" stroke="#96b2d8" stroke-width="1.51"/><path d="M1813,-10L1944,152L1955,-56Z" fill="#93b4df" stroke="#93b4df" stroke-width="1.51"/><path d="M1831,277L1798,487L1968,299Z" fill="#99b4d8" stroke="#99b4d8" stroke-width="1.51"/><path d="M1788,783L1959,846L1989,631Z" fill="#93afd6" stroke="#93afd6" stroke-width="1.51"/><path d="M1786,637L1788,783L1989,631Z" fill="#97b1d6" stroke="#97b1d6" stroke-width="1.51"/><path d="M1798,487L1786,637L1989,631Z" fill="#9ab3d5" stroke="#9ab3d5" stroke-width="1.51"/><path d="M1798,487L1989,631L1993,465Z" fill="#9ab3d5" stroke="#9ab3d5" stroke-width="1.51"/><path d="M1968,299L1798,487L1993,465Z" fill="#99b3d7" stroke="#99b3d7" stroke-width="1.51"/><path d="M1787,1306L1973,1325L2005,1168Z" fill="#7ea5da" stroke="#7ea5da" stroke-width="1.51"/><path d="M1802,1074L1787,1306L2005,1168Z" fill="#84a8d9" stroke="#84a8d9" stroke-width="1.51"/><path d="M1987,957L1851,973L2005,1168Z" fill="#87aad8" stroke="#87aad8" stroke-width="1.51"/><path d="M1851,973L1802,1074L2005,1168Z" fill="#88a9d9" stroke="#88a9d9" stroke-width="1.51"/><path d="M1944,152L1831,277L1968,299Z" fill="#96b3db" stroke="#96b3db" stroke-width="1.51"/><path d="M1959,846L1851,973L1987,957Z" fill="#8cacd8" stroke="#8cacd8" stroke-width="1.51"/><path d="M1530,-244L1670,-193L1812,-215Z" fill="#94b6e2" stroke="#94b6e2" stroke-width="1.51"/><path d="M1813,-10L1779,94L1944,152Z" fill="#95b4dd" stroke="#95b4dd" stroke-width="1.51"/><path d="M1812,-215L1813,-10L1951,-164Z" fill="#91b4e2" stroke="#91b4e2" stroke-width="1.51"/><path d="M1951,-164L1813,-10L1955,-56Z" fill="#91b4e1" stroke="#91b4e1" stroke-width="1.51"/><path d="M1788,783L1851,973L1959,846Z" fill="#90aed7" stroke="#90aed7" stroke-width="1.51"/><path d="M1779,94L1831,277L1944,152Z" fill="#96b4dc" stroke="#96b4dc" stroke-width="1.51"/><path d="M622,1341L458,1358L769,1345Z" fill="#90b0da" stroke="#90b0da" stroke-width="1.51"/><path d="M1661,1186L1787,1306L1802,1074Z" fill="#86a9d9" stroke="#86a9d9" stroke-width="1.51"/><path d="M1812,-215L1676,-103L1813,-10Z" fill="#93b5e1" stroke="#93b5e1" stroke-width="1.51"/><path d="M1621,440L1798,487L1831,277Z" fill="#9db5d7" stroke="#9db5d7" stroke-width="1.51"/><path d="M1599,330L1621,440L1831,277Z" fill="#9db6d8" stroke="#9db6d8" stroke-width="1.51"/><path d="M1788,783L1661,824L1851,973Z" fill="#93afd7" stroke="#93afd7" stroke-width="1.51"/><path d="M1584,1009L1802,1074L1851,973Z" fill="#8dacd8" stroke="#8dacd8" stroke-width="1.51"/><path d="M1661,824L1584,1009L1851,973Z" fill="#92aed7" stroke="#92aed7" stroke-width="1.51"/><path d="M-220,-186L-113,-178L508,-254Z" fill="#9cc0eb" stroke="#9cc0eb" stroke-width="1.51"/><path d="M1670,-193L1676,-103L1812,-215Z" fill="#93b6e1" stroke="#93b6e1" stroke-width="1.51"/><path d="M1779,94L1618,121L1831,277Z" fill="#99b5dc" stroke="#99b5dc" stroke-width="1.51"/><path d="M1618,121L1599,330L1831,277Z" fill="#9bb6da" stroke="#9bb6da" stroke-width="1.51"/><path d="M1591,588L1786,637L1798,487Z" fill="#9eb5d4" stroke="#9eb5d4" stroke-width="1.51"/><path d="M1676,-103L1779,94L1813,-10Z" fill="#96b5df" stroke="#96b5df" stroke-width="1.51"/><path d="M1786,637L1661,824L1788,783Z" fill="#97b1d6" stroke="#97b1d6" stroke-width="1.51"/><path d="M1676,-103L1618,121L1779,94Z" fill="#98b6dd" stroke="#98b6dd" stroke-width="1.51"/><path d="M1661,1186L1658,1317L1787,1306Z" fill="#84a8d9" stroke="#84a8d9" stroke-width="1.51"/><path d="M1621,440L1591,588L1798,487Z" fill="#a0b6d4" stroke="#a0b6d4" stroke-width="1.51"/><path d="M1584,1009L1661,1186L1802,1074Z" fill="#8cacd8" stroke="#8cacd8" stroke-width="1.51"/><path d="M1591,588L1661,824L1786,637Z" fill="#9bb3d5" stroke="#9bb3d5" stroke-width="1.51"/><path d="M1505,-26L1531,87L1618,121Z" fill="#9cb8dc" stroke="#9cb8dc" stroke-width="1.51"/><path d="M1516,231L1599,330L1618,121Z" fill="#9eb7d9" stroke="#9eb7d9" stroke-width="1.51"/><path d="M1480,955L1584,1009L1661,824Z" fill="#95b0d6" stroke="#95b0d6" stroke-width="1.51"/><path d="M1591,588L1502,611L1661,824Z" fill="#9eb5d4" stroke="#9eb5d4" stroke-width="1.51"/><path d="M1502,611L1435,854L1661,824Z" fill="#9cb4d5" stroke="#9cb4d5" stroke-width="1.51"/><path d="M1518,1197L1658,1317L1661,1186Z" fill="#88aad8" stroke="#88aad8" stroke-width="1.51"/><path d="M1584,1009L1518,1197L1661,1186Z" fill="#8dacd7" stroke="#8dacd7" stroke-width="1.51"/><path d="M1505,-26L1618,121L1676,-103Z" fill="#99b7de" stroke="#99b7de" stroke-width="1.51"/><path d="M1670,-193L1530,-244L1676,-103Z" fill="#96b7e1" stroke="#96b7e1" stroke-width="1.51"/><path d="M1530,-244L1505,-26L1676,-103Z" fill="#98b8e0" stroke="#98b8e0" stroke-width="1.51"/><path d="M1435,854L1480,955L1661,824Z" fill="#98b1d6" stroke="#98b1d6" stroke-width="1.51"/><path d="M1131,-229L1303,-172L1530,-244Z" fill="#9dbbe1" stroke="#9dbbe1" stroke-width="1.51"/><path d="M1518,1197L1409,1288L1658,1317Z" fill="#89aad8" stroke="#89aad8" stroke-width="1.51"/><path d="M1531,87L1516,231L1618,121Z" fill="#9db7db" stroke="#9db7db" stroke-width="1.51"/><path d="M1502,611L1591,588L1621,440Z" fill="#a3b7d3" stroke="#a3b7d3" stroke-width="1.51"/><path d="M1424,416L1502,611L1621,440Z" fill="#a4b8d4" stroke="#a4b8d4" stroke-width="1.51"/><path d="M1599,330L1424,416L1621,440Z" fill="#a1b7d6" stroke="#a1b7d6" stroke-width="1.51"/><path d="M1480,955L1518,1197L1584,1009Z" fill="#91aed7" stroke="#91aed7" stroke-width="1.51"/><path d="M1516,231L1424,416L1599,330Z" fill="#a1b8d7" stroke="#a1b8d7" stroke-width="1.51"/><path d="M1267,1013L1289,1178L1480,955Z" fill="#96b0d6" stroke="#96b0d6" stroke-width="1.51"/><path d="M1298,793L1435,854L1502,611Z" fill="#9fb5d4" stroke="#9fb5d4" stroke-width="1.51"/><path d="M1294,238L1424,416L1516,231Z" fill="#a3b9d7" stroke="#a3b9d7" stroke-width="1.51"/><path d="M1480,955L1289,1178L1518,1197Z" fill="#92aed7" stroke="#92aed7" stroke-width="1.51"/><path d="M1303,-172L1505,-26L1530,-244Z" fill="#9bb9e0" stroke="#9bb9e0" stroke-width="1.51"/><path d="M1304,145L1516,231L1531,87Z" fill="#a0b9da" stroke="#a0b9da" stroke-width="1.51"/><path d="M1505,-26L1304,145L1531,87Z" fill="#9eb9dc" stroke="#9eb9dc" stroke-width="1.51"/><path d="M1424,416L1284,568L1502,611Z" fill="#a7b9d2" stroke="#a7b9d2" stroke-width="1.51"/><path d="M1304,145L1294,238L1516,231Z" fill="#a2bad8" stroke="#a2bad8" stroke-width="1.51"/><path d="M1289,1178L1409,1288L1518,1197Z" fill="#8eadd7" stroke="#8eadd7" stroke-width="1.51"/><path d="M1294,238L1359,413L1424,416Z" fill="#a6bad6" stroke="#a6bad6" stroke-width="1.51"/><path d="M1284,568L1298,793L1502,611Z" fill="#a4b8d3" stroke="#a4b8d3" stroke-width="1.51"/><path d="M1261,-92L1304,145L1505,-26Z" fill="#a0badc" stroke="#a0badc" stroke-width="1.51"/><path d="M1303,-172L1261,-92L1505,-26Z" fill="#9ebade" stroke="#9ebade" stroke-width="1.51"/><path d="M1359,413L1284,568L1424,416Z" fill="#a7bad4" stroke="#a7bad4" stroke-width="1.51"/><path d="M1435,854L1267,1013L1480,955Z" fill="#99b2d5" stroke="#99b2d5" stroke-width="1.51"/><path d="M1267,1242L1181,1318L1409,1288Z" fill="#8fadd7" stroke="#8fadd7" stroke-width="1.51"/><path d="M1298,793L1267,1013L1435,854Z" fill="#9db4d5" stroke="#9db4d5" stroke-width="1.51"/><path d="M1289,1178L1267,1242L1409,1288Z" fill="#8fadd7" stroke="#8fadd7" stroke-width="1.51"/><path d="M1158,817L1267,1013L1298,793Z" fill="#9fb5d4" stroke="#9fb5d4" stroke-width="1.51"/><path d="M1284,568L1144,618L1298,793Z" fill="#a7b9d3" stroke="#a7b9d3" stroke-width="1.51"/><path d="M1261,-92L1159,110L1304,145Z" fill="#a3bcdb" stroke="#a3bcdb" stroke-width="1.51"/><path d="M1294,238L1104,454L1359,413Z" fill="#a8bbd5" stroke="#a8bbd5" stroke-width="1.51"/><path d="M1104,454L1284,568L1359,413Z" fill="#aabbd3" stroke="#aabbd3" stroke-width="1.51"/><path d="M-113,-178L141,-171L508,-254Z" fill="#9dc0e9" stroke="#9dc0e9" stroke-width="1.51"/><path d="M1017,1261L769,1345L1181,1318Z" fill="#96b0d6" stroke="#96b0d6" stroke-width="1.51"/><path d="M1114,-16L1159,110L1261,-92Z" fill="#a4bddc" stroke="#a4bddc" stroke-width="1.51"/><path d="M1158,817L1090,946L1267,1013Z" fill="#9fb5d4" stroke="#9fb5d4" stroke-width="1.51"/><path d="M1267,1013L1128,1078L1289,1178Z" fill="#97b1d6" stroke="#97b1d6" stroke-width="1.51"/><path d="M1075,256L1104,454L1294,238Z" fill="#aabcd5" stroke="#aabcd5" stroke-width="1.51"/><path d="M1144,618L1158,817L1298,793Z" fill="#a5b8d3" stroke="#a5b8d3" stroke-width="1.51"/><path d="M1159,110L1294,238L1304,145Z" fill="#a5bbd9" stroke="#a5bbd9" stroke-width="1.51"/><path d="M1131,-229L1261,-92L1303,-172Z" fill="#a0bcdf" stroke="#a0bcdf" stroke-width="1.51"/><path d="M1104,454L1144,618L1284,568Z" fill="#acbcd1" stroke="#acbcd1" stroke-width="1.51"/><path d="M1159,110L1075,256L1294,238Z" fill="#a7bcd8" stroke="#a7bcd8" stroke-width="1.51"/><path d="M1128,1078L1267,1242L1289,1178Z" fill="#95b0d6" stroke="#95b0d6" stroke-width="1.51"/><path d="M1128,1078L1181,1318L1267,1242Z" fill="#94afd6" stroke="#94afd6" stroke-width="1.51"/><path d="M1090,946L1128,1078L1267,1013Z" fill="#9cb4d5" stroke="#9cb4d5" stroke-width="1.51"/><path d="M1131,-229L1114,-16L1261,-92Z" fill="#a3bdde" stroke="#a3bdde" stroke-width="1.51"/><path d="M1010,575L952,845L1144,618Z" fill="#abbbd2" stroke="#abbbd2" stroke-width="1.51"/><path d="M1104,454L1010,575L1144,618Z" fill="#aebdd1" stroke="#aebdd1" stroke-width="1.51"/><path d="M1144,618L952,845L1158,817Z" fill="#a7b9d2" stroke="#a7b9d2" stroke-width="1.51"/><path d="M1128,1078L1017,1261L1181,1318Z" fill="#95b0d6" stroke="#95b0d6" stroke-width="1.51"/><path d="M955,-231L1114,-16L1131,-229Z" fill="#a4bede" stroke="#a4bede" stroke-width="1.51"/><path d="M952,845L1090,946L1158,817Z" fill="#a3b7d3" stroke="#a3b7d3" stroke-width="1.51"/><path d="M912,153L1075,256L1159,110Z" fill="#aabed8" stroke="#aabed8" stroke-width="1.51"/><path d="M1114,-16L927,4L1159,110Z" fill="#a7beda" stroke="#a7beda" stroke-width="1.51"/><path d="M927,4L912,153L1159,110Z" fill="#aabed9" stroke="#aabed9" stroke-width="1.51"/><path d="M1075,256L987,461L1104,454Z" fill="#adbed3" stroke="#adbed3" stroke-width="1.51"/><path d="M955,-231L927,4L1114,-16Z" fill="#a7bfdc" stroke="#a7bfdc" stroke-width="1.51"/><path d="M912,1182L1017,1261L1128,1078Z" fill="#99b3d5" stroke="#99b3d5" stroke-width="1.51"/><path d="M952,845L997,942L1090,946Z" fill="#a3b7d3" stroke="#a3b7d3" stroke-width="1.51"/><path d="M1090,946L997,942L1128,1078Z" fill="#9fb5d4" stroke="#9fb5d4" stroke-width="1.51"/><path d="M997,942L912,1182L1128,1078Z" fill="#9eb5d5" stroke="#9eb5d5" stroke-width="1.51"/><path d="M899,315L987,461L1075,256Z" fill="#aebed4" stroke="#aebed4" stroke-width="1.51"/><path d="M987,461L1010,575L1104,454Z" fill="#afbed2" stroke="#afbed2" stroke-width="1.51"/><path d="M805,663L952,845L1010,575Z" fill="#abbcd2" stroke="#abbcd2" stroke-width="1.51"/><path d="M912,153L899,315L1075,256Z" fill="#adbfd6" stroke="#adbfd6" stroke-width="1.51"/><path d="M800,-73L927,4L955,-231Z" fill="#a7bfde" stroke="#a7bfde" stroke-width="1.51"/><path d="M803,990L912,1182L997,942Z" fill="#9fb6d4" stroke="#9fb6d4" stroke-width="1.51"/><path d="M912,1182L769,1345L1017,1261Z" fill="#97b2d6" stroke="#97b2d6" stroke-width="1.51"/><path d="M805,663L833,845L952,845Z" fill="#a8bad4" stroke="#a8bad4" stroke-width="1.51"/><path d="M987,461L772,498L1010,575Z" fill="#b0bfd1" stroke="#b0bfd1" stroke-width="1.51"/><path d="M772,498L805,663L1010,575Z" fill="#afbed2" stroke="#afbed2" stroke-width="1.51"/><path d="M803,990L771,1083L912,1182Z" fill="#9db5d6" stroke="#9db5d6" stroke-width="1.51"/><path d="M952,845L833,845L997,942Z" fill="#a5b8d3" stroke="#a5b8d3" stroke-width="1.51"/><path d="M833,845L803,990L997,942Z" fill="#a3b8d4" stroke="#a3b8d4" stroke-width="1.51"/><path d="M899,315L772,498L987,461Z" fill="#afbfd3" stroke="#afbfd3" stroke-width="1.51"/><path d="M805,90L912,153L927,4Z" fill="#aabfda" stroke="#aabfda" stroke-width="1.51"/><path d="M730,-257L800,-73L955,-231Z" fill="#a5bfe0" stroke="#a5bfe0" stroke-width="1.51"/><path d="M771,296L772,498L899,315Z" fill="#adbfd5" stroke="#adbfd5" stroke-width="1.51"/><path d="M771,296L899,315L912,153Z" fill="#acbfd7" stroke="#acbfd7" stroke-width="1.51"/><path d="M800,-73L805,90L927,4Z" fill="#a8bfdc" stroke="#a8bfdc" stroke-width="1.51"/><path d="M771,1083L676,1161L912,1182Z" fill="#9ab4d7" stroke="#9ab4d7" stroke-width="1.51"/><path d="M676,1161L769,1345L912,1182Z" fill="#97b2d8" stroke="#97b2d8" stroke-width="1.51"/><path d="M805,90L771,296L912,153Z" fill="#abbfd8" stroke="#abbfd8" stroke-width="1.51"/><path d="M141,-171L277,-176L508,-254Z" fill="#9fbfe7" stroke="#9fbfe7" stroke-width="1.51"/><path d="M676,161L771,296L805,90Z" fill="#aabfda" stroke="#aabfda" stroke-width="1.51"/><path d="M614,948L803,990L833,845Z" fill="#a2b8d6" stroke="#a2b8d6" stroke-width="1.51"/><path d="M646,754L614,948L833,845Z" fill="#a4b9d6" stroke="#a4b9d6" stroke-width="1.51"/><path d="M805,663L646,754L833,845Z" fill="#a8bbd4" stroke="#a8bbd4" stroke-width="1.51"/><path d="M676,161L673,262L771,296Z" fill="#aabfd9" stroke="#aabfd9" stroke-width="1.51"/><path d="M771,296L596,414L772,498Z" fill="#adbfd6" stroke="#adbfd6" stroke-width="1.51"/><path d="M730,-257L606,-208L800,-73Z" fill="#a4bfe2" stroke="#a4bfe2" stroke-width="1.51"/><path d="M606,-208L591,-106L800,-73Z" fill="#a4bfe1" stroke="#a4bfe1" stroke-width="1.51"/><path d="M800,-73L591,-106L805,90Z" fill="#a7bfde" stroke="#a7bfde" stroke-width="1.51"/><path d="M591,-106L676,161L805,90Z" fill="#a7bfdd" stroke="#a7bfdd" stroke-width="1.51"/><path d="M772,498L591,589L805,663Z" fill="#aebed3" stroke="#aebed3" stroke-width="1.51"/><path d="M591,589L646,754L805,663Z" fill="#aabcd4" stroke="#aabcd4" stroke-width="1.51"/><path d="M676,1161L622,1341L769,1345Z" fill="#94b1d9" stroke="#94b1d9" stroke-width="1.51"/><path d="M614,948L771,1083L803,990Z" fill="#9fb6d7" stroke="#9fb6d7" stroke-width="1.51"/><path d="M673,262L596,414L771,296Z" fill="#acbfd8" stroke="#acbfd8" stroke-width="1.51"/><path d="M614,948L676,1161L771,1083Z" fill="#9cb5d8" stroke="#9cb5d8" stroke-width="1.51"/><path d="M596,414L591,589L772,498Z" fill="#aebfd5" stroke="#aebfd5" stroke-width="1.51"/><path d="M508,-254L606,-208L730,-257Z" fill="#a2bfe4" stroke="#a2bfe4" stroke-width="1.51"/><path d="M591,-106L450,-3L676,161Z" fill="#a6bfdf" stroke="#a6bfdf" stroke-width="1.51"/><path d="M467,835L614,948L646,754Z" fill="#a3b9d7" stroke="#a3b9d7" stroke-width="1.51"/><path d="M450,-3L399,53L676,161Z" fill="#a6bfdf" stroke="#a6bfdf" stroke-width="1.51"/><path d="M393,252L673,262L676,161Z" fill="#a9bfdb" stroke="#a9bfdb" stroke-width="1.51"/><path d="M399,53L393,252L676,161Z" fill="#a7bfde" stroke="#a7bfde" stroke-width="1.51"/><path d="M614,948L460,970L676,1161Z" fill="#9cb6d9" stroke="#9cb6d9" stroke-width="1.51"/><path d="M460,970L399,1193L676,1161Z" fill="#98b4da" stroke="#98b4da" stroke-width="1.51"/><path d="M399,1193L622,1341L676,1161Z" fill="#94b2da" stroke="#94b2da" stroke-width="1.51"/><path d="M393,252L596,414L673,262Z" fill="#aabfda" stroke="#aabfda" stroke-width="1.51"/><path d="M399,1193L458,1358L622,1341Z" fill="#91b1dc" stroke="#91b1dc" stroke-width="1.51"/><path d="M591,589L410,685L646,754Z" fill="#a9bcd6" stroke="#a9bcd6" stroke-width="1.51"/><path d="M410,685L467,835L646,754Z" fill="#a5bbd7" stroke="#a5bbd7" stroke-width="1.51"/><path d="M386,498L591,589L596,414Z" fill="#adbfd7" stroke="#adbfd7" stroke-width="1.51"/><path d="M467,835L460,970L614,948Z" fill="#9fb8d9" stroke="#9fb8d9" stroke-width="1.51"/><path d="M508,-254L591,-106L606,-208Z" fill="#a2bfe3" stroke="#a2bfe3" stroke-width="1.51"/><path d="M393,252L386,498L596,414Z" fill="#aabfd9" stroke="#aabfd9" stroke-width="1.51"/><path d="M386,498L410,685L591,589Z" fill="#abbed7" stroke="#abbed7" stroke-width="1.51"/><path d="M508,-254L450,-3L591,-106Z" fill="#a2bfe3" stroke="#a2bfe3" stroke-width="1.51"/><path d="M327,440L386,498L393,252Z" fill="#a9bfdb" stroke="#a9bfdb" stroke-width="1.51"/><path d="M260,1277L64,1336L458,1358Z" fill="#8db1df" stroke="#8db1df" stroke-width="1.51"/><path d="M277,-176L450,-3L508,-254Z" fill="#a1bfe5" stroke="#a1bfe5" stroke-width="1.51"/><path d="M289,918L271,1191L399,1193Z" fill="#96b4dd" stroke="#96b4dd" stroke-width="1.51"/><path d="M338,59L393,252L399,53Z" fill="#a6bfe0" stroke="#a6bfe0" stroke-width="1.51"/><path d="M277,-176L256,-91L450,-3Z" fill="#a1bfe5" stroke="#a1bfe5" stroke-width="1.51"/><path d="M399,1193L260,1277L458,1358Z" fill="#90b1dd" stroke="#90b1dd" stroke-width="1.51"/><path d="M289,918L399,1193L460,970Z" fill="#9ab6db" stroke="#9ab6db" stroke-width="1.51"/><path d="M410,685L221,850L467,835Z" fill="#a3bada" stroke="#a3bada" stroke-width="1.51"/><path d="M221,850L289,918L467,835Z" fill="#9fb9db" stroke="#9fb9db" stroke-width="1.51"/><path d="M289,918L460,970L467,835Z" fill="#9eb8da" stroke="#9eb8da" stroke-width="1.51"/><path d="M256,-91L338,59L450,-3Z" fill="#a3bfe3" stroke="#a3bfe3" stroke-width="1.51"/><path d="M265,298L327,440L393,252Z" fill="#a8bfdc" stroke="#a8bfdc" stroke-width="1.51"/><path d="M386,498L242,570L410,685Z" fill="#aabed8" stroke="#aabed8" stroke-width="1.51"/><path d="M338,59L399,53L450,-3Z" fill="#a4bfe1" stroke="#a4bfe1" stroke-width="1.51"/><path d="M147,1077L271,1191L289,918Z" fill="#97b6dd" stroke="#97b6dd" stroke-width="1.51"/><path d="M338,59L265,298L393,252Z" fill="#a6bfdf" stroke="#a6bfdf" stroke-width="1.51"/><path d="M271,1191L260,1277L399,1193Z" fill="#92b2de" stroke="#92b2de" stroke-width="1.51"/><path d="M242,570L160,649L410,685Z" fill="#a7bdd9" stroke="#a7bdd9" stroke-width="1.51"/><path d="M160,649L221,850L410,685Z" fill="#a4bcdb" stroke="#a4bcdb" stroke-width="1.51"/><path d="M153,177L265,298L338,59Z" fill="#a5bfe0" stroke="#a5bfe0" stroke-width="1.51"/><path d="M327,440L242,570L386,498Z" fill="#aabfd9" stroke="#aabfd9" stroke-width="1.51"/><path d="M256,-91L169,-27L338,59Z" fill="#a2c0e4" stroke="#a2c0e4" stroke-width="1.51"/><path d="M169,-27L153,177L338,59Z" fill="#a3c0e3" stroke="#a3c0e3" stroke-width="1.51"/><path d="M123,988L147,1077L289,918Z" fill="#99b7de" stroke="#99b7de" stroke-width="1.51"/><path d="M265,298L136,486L327,440Z" fill="#a8bfdc" stroke="#a8bfdc" stroke-width="1.51"/><path d="M136,486L242,570L327,440Z" fill="#a9bfda" stroke="#a9bfda" stroke-width="1.51"/><path d="M221,850L123,988L289,918Z" fill="#9cb8dd" stroke="#9cb8dd" stroke-width="1.51"/><path d="M69,270L136,486L265,298Z" fill="#a7bfde" stroke="#a7bfde" stroke-width="1.51"/><path d="M141,-171L256,-91L277,-176Z" fill="#9fc0e7" stroke="#9fc0e7" stroke-width="1.51"/><path d="M64,1336L260,1277L271,1191Z" fill="#8fb2df" stroke="#8fb2df" stroke-width="1.51"/><path d="M147,1077L64,1336L271,1191Z" fill="#91b3df" stroke="#91b3df" stroke-width="1.51"/><path d="M160,649L57,797L221,850Z" fill="#a1bbdc" stroke="#a1bbdc" stroke-width="1.51"/><path d="M153,177L69,270L265,298Z" fill="#a5bfe0" stroke="#a5bfe0" stroke-width="1.51"/><path d="M141,-171L169,-27L256,-91Z" fill="#9fc0e7" stroke="#9fc0e7" stroke-width="1.51"/><path d="M-18,1260L64,1336L147,1077Z" fill="#8fb3e1" stroke="#8fb3e1" stroke-width="1.51"/><path d="M136,486L160,649L242,570Z" fill="#a8bfda" stroke="#a8bfda" stroke-width="1.51"/><path d="M57,797L123,988L221,850Z" fill="#9db9dd" stroke="#9db9dd" stroke-width="1.51"/><path d="M69,270L-19,503L136,486Z" fill="#a6bfde" stroke="#a6bfde" stroke-width="1.51"/><path d="M-80,1155L-18,1260L147,1077Z" fill="#90b4e1" stroke="#90b4e1" stroke-width="1.51"/><path d="M136,486L-19,503L160,649Z" fill="#a9bfdb" stroke="#a9bfdb" stroke-width="1.51"/><path d="M141,-171L-58,-17L169,-27Z" fill="#9fc0e7" stroke="#9fc0e7" stroke-width="1.51"/><path d="M-56,131L153,177L169,-27Z" fill="#a2bfe4" stroke="#a2bfe4" stroke-width="1.51"/><path d="M-58,-17L-56,131L169,-27Z" fill="#a0c0e6" stroke="#a0c0e6" stroke-width="1.51"/><path d="M57,797L-31,976L123,988Z" fill="#9ab8df" stroke="#9ab8df" stroke-width="1.51"/><path d="M-122,668L57,797L160,649Z" fill="#a2bcdd" stroke="#a2bcdd" stroke-width="1.51"/><path d="M-19,503L-122,668L160,649Z" fill="#a6bedd" stroke="#a6bedd" stroke-width="1.51"/><path d="M-56,131L69,270L153,177Z" fill="#a3bfe3" stroke="#a3bfe3" stroke-width="1.51"/><path d="M-113,-178L-58,-17L141,-171Z" fill="#9dc0ea" stroke="#9dc0ea" stroke-width="1.51"/><path d="M123,988L-31,976L147,1077Z" fill="#97b6df" stroke="#97b6df" stroke-width="1.51"/><path d="M-31,976L-80,1155L147,1077Z" fill="#94b5e0" stroke="#94b5e0" stroke-width="1.51"/><path d="M-122,746L-31,976L57,797Z" fill="#9cbadf" stroke="#9cbadf" stroke-width="1.51"/><path d="M-122,668L-122,746L57,797Z" fill="#9fbcdf" stroke="#9fbcdf" stroke-width="1.51"/><path d="M-18,1260L-222,1304L64,1336Z" fill="#8ab1e3" stroke="#8ab1e3" stroke-width="1.51"/><path d="M-97,248L-19,503L69,270Z" fill="#a4bfe1" stroke="#a4bfe1" stroke-width="1.51"/><path d="M-56,131L-97,248L69,270Z" fill="#a2bfe3" stroke="#a2bfe3" stroke-width="1.51"/><path d="M-97,248L-206,412L-19,503Z" fill="#a4bfe1" stroke="#a4bfe1" stroke-width="1.51"/><path d="M-122,746L-181,929L-31,976Z" fill="#9ab9e1" stroke="#9ab9e1" stroke-width="1.51"/><path d="M-181,1103L-80,1155L-31,976Z" fill="#92b5e2" stroke="#92b5e2" stroke-width="1.51"/><path d="M-195,611L-122,668L-19,503Z" fill="#a4bedf" stroke="#a4bedf" stroke-width="1.51"/><path d="M-80,1155L-222,1304L-18,1260Z" fill="#8cb2e3" stroke="#8cb2e3" stroke-width="1.51"/><path d="M-206,412L-195,611L-19,503Z" fill="#a6bfdf" stroke="#a6bfdf" stroke-width="1.51"/><path d="M-113,-178L-186,-12L-58,-17Z" fill="#9cc0ea" stroke="#9cc0ea" stroke-width="1.51"/><path d="M-58,-17L-186,-12L-56,131Z" fill="#9fc0e8" stroke="#9fc0e8" stroke-width="1.51"/><path d="M-181,929L-181,1103L-31,976Z" fill="#95b7e2" stroke="#95b7e2" stroke-width="1.51"/><path d="M-228,144L-97,248L-56,131Z" fill="#a0bfe6" stroke="#a0bfe6" stroke-width="1.51"/><path d="M-186,-12L-228,144L-56,131Z" fill="#9ebfe8" stroke="#9ebfe8" stroke-width="1.51"/><path d="M-220,-186L-186,-12L-113,-178Z" fill="#9bc0ec" stroke="#9bc0ec" stroke-width="1.51"/><path d="M-230,235L-206,412L-97,248Z" fill="#a2bfe4" stroke="#a2bfe4" stroke-width="1.51"/><path d="M-228,144L-230,235L-97,248Z" fill="#a0bfe6" stroke="#a0bfe6" stroke-width="1.51"/><path d="M-181,1103L-222,1304L-80,1155Z" fill="#8db3e3" stroke="#8db3e3" stroke-width="1.51"/><path d="M-289,779L-181,929L-122,746Z" fill="#9bbae1" stroke="#9bbae1" stroke-width="1.51"/><path d="M-195,611L-289,779L-122,746Z" fill="#9fbce1" stroke="#9fbce1" stroke-width="1.51"/><path d="M-195,611L-122,746L-122,668Z" fill="#a1bddf" stroke="#a1bddf" stroke-width="1.51"/><path d="M-181,929L-289,779L-181,1103Z" fill="#97b8e2" stroke="#97b8e2" stroke-width="1.51"/><path d="M-289,779L-222,1304L-181,1103Z" fill="#91b6e4" stroke="#91b6e4" stroke-width="1.51"/><path d="M-206,412L-289,779L-195,611Z" fill="#a3bee0" stroke="#a3bee0" stroke-width="1.51"/><path d="M-220,-186L-228,144L-186,-12Z" fill="#9cc0ea" stroke="#9cc0ea" stroke-width="1.51"/><path d="M-230,235L-289,779L-206,412Z" fill="#a4bfe1" stroke="#a4bfe1" stroke-width="1.51"/><path d="M-289,779L-228,144L-220,-186Z" fill="#a1bfe6" stroke="#a1bfe6" stroke-width="1.51"/><path d="M-289,779L-230,235L-228,144Z" fill="#a3bfe3" stroke="#a3bfe3" stroke-width="1.51"/></svg>